<svg width="12" height="14" viewBox="0 0 12 14" fill="none" xmlns="http://www.w3.org/2000/svg">
<g clip-path="url(#clip0_2_2977)">
<g clip-path="url(#clip1_2_2977)">
<path fill-rule="evenodd" clip-rule="evenodd" d="M6.48429 2.95417C6.07362 2.5127 5.68023 2.20036 5.28847 1.98962C4.75405 1.70215 4.25637 1.62109 3.78247 1.62109C1.70369 1.62109 0.540283 3.28488 0.540283 4.97676C0.540283 6.16178 1.22222 7.06959 1.76691 7.65048L6.08983 12.2576C6.1402 12.3119 6.20124 12.3552 6.26911 12.3848C6.33699 12.4144 6.41024 12.4297 6.48429 12.4297C6.55834 12.4297 6.6316 12.4144 6.69947 12.3848C6.76735 12.3552 6.82838 12.3119 6.87876 12.2576L9.03914 9.95514L11.2011 7.65048C11.7464 7.06959 12.4283 6.16178 12.4283 4.97676C12.4283 3.28488 11.2649 1.62109 9.18612 1.62109C8.71168 1.62109 8.21454 1.70215 7.68012 1.98962C7.28836 2.20036 6.89551 2.5127 6.48429 2.95417ZM6.05632 4.11271C5.54676 3.47671 5.12906 3.13141 4.77566 2.9412C4.43199 2.75586 4.11858 2.70182 3.78247 2.70182C2.42291 2.70182 1.62101 3.75121 1.62101 4.97676C1.62101 5.73759 2.06195 6.38495 2.55584 6.91126L6.48429 11.098L10.4127 6.91018C10.9066 6.38441 11.3476 5.73705 11.3476 4.97676C11.3476 3.75121 10.5457 2.70182 9.18612 2.70182C8.85001 2.70182 8.53714 2.75586 8.19293 2.9412C7.83953 3.13141 7.42183 3.47671 6.91226 4.11271C6.85781 4.18279 6.78716 4.2386 6.70638 4.27536C6.5955 4.32516 6.47109 4.33619 6.35317 4.30668C6.23525 4.27718 6.1307 4.20886 6.05632 4.11271Z" fill="#3665F3"/>
</g>
</g>
<defs>
<clipPath id="clip0_2_2977">
<rect width="12" height="14" fill="white"/>
</clipPath>
<clipPath id="clip1_2_2977">
<rect width="12.9688" height="12.9688" fill="white"/>
</clipPath>
</defs>
</svg>
